HIERARCHY
ROOT hip
{
	OFFSET 0.000000 0.000000 0.000000 
	CHANNELS 6 Xposition Yposition Zposition Xrotation Zrotation Yrotation
	JOINT abdomen
	{
		OFFSET 0.000000 3.402643 0.000000 
		CHANNELS 3 Xrotation Zrotation Yrotation
		JOINT chest
		{
			OFFSET 0.000000 8.438565 -0.680529 
			CHANNELS 3 Xrotation Zrotation Yrotation
			JOINT neck
			{
				OFFSET 0.000000 10.207942 -0.272212 
				CHANNELS 3 Xrotation Zrotation Yrotation
				JOINT head
				{
					OFFSET 0.000000 3.130431 0.000000 
					CHANNELS 3 Xrotation Zrotation Yrotation
					End Site
					{
						OFFSET 0.000000 3.130435 0.000000 
					}
				}
			}
			JOINT lCollar
			{
				OFFSET 3.470700 6.669187 -0.816635 
				CHANNELS 3 Yrotation Zrotation Xrotation
				JOINT lShldr
				{
					OFFSET 3.198488 0.000000 0.000000 
					CHANNELS 3 Zrotation Yrotation Xrotation
					JOINT lForeArm
					{
						OFFSET 10.139888 0.000000 0.000000 
						CHANNELS 3 Yrotation Zrotation Xrotation
						JOINT lHand
						{
							OFFSET 8.370511 0.000000 0.000000 
							CHANNELS 3 Zrotation Yrotation Xrotation
							End Site
							{
								OFFSET 4.083176 0.000000 0.000000 
							}
						}
					}
				}
			}
			JOINT rCollar
			{
				OFFSET -3.470700 6.669187 -0.816635 
				CHANNELS 3 Yrotation Zrotation Xrotation
				JOINT rShldr
				{
					OFFSET -3.198488 0.000000 0.000000 
					CHANNELS 3 Zrotation Yrotation Xrotation
					JOINT rForeArm
					{
						OFFSET -10.139888 0.000000 0.000000 
						CHANNELS 3 Yrotation Zrotation Xrotation
						JOINT rHand
						{
							OFFSET -8.370511 0.000000 0.000000 
							CHANNELS 3 Zrotation Yrotation Xrotation
							End Site
							{
								OFFSET -4.083176 0.000000 0.000000 
							}
						}
					}
				}
			}
		}
	}
	JOINT lThigh
	{
		OFFSET 5.308129 -1.633274 1.361059 
		CHANNELS 3 Xrotation Zrotation Yrotation
		JOINT lShin
		{
			OFFSET -2.041588 -20.007561 0.000000 
			CHANNELS 3 Xrotation Zrotation Yrotation
			JOINT lFoot
			{
				OFFSET 0.000000 -19.190928 -1.224953 
				CHANNELS 3 Xrotation Yrotation Zrotation
				End Site
				{
					OFFSET 0.000000 -2.449906 4.627600 
				}
			}
		}
	}
	JOINT rThigh
	{
		OFFSET -5.308129 -1.633274 1.361059 
		CHANNELS 3 Xrotation Zrotation Yrotation
		JOINT rShin
		{
			OFFSET 2.041588 -20.007561 0.000000 
			CHANNELS 3 Xrotation Zrotation Yrotation
			JOINT rFoot
			{
				OFFSET 0.000000 -19.190928 -1.224953 
				CHANNELS 3 Xrotation Yrotation Zrotation
				End Site
				{
					OFFSET 0.000000 -2.449906 4.627600 
				}
			}
		}
	}
}
MOTION
Frames: 11
Frame Time: 0.033333
-0.103293 43.163200 -33.788635 0.490152 12.509321 108.516083 44.809052 0.934664 -3.259808 -20.839844 0.000000 0.000000 -30.614653 11.042223 -28.931892 8.584577 -3.811294 0.287245 -4.754609 -0.109183 -0.002653 -70.809319 -33.647209 31.656178 -23.280680 -22.604515 48.819988 -3.322186 -5.946798 8.070871 4.754609 0.109183 -0.002672 85.609711 -39.155647 -33.678165 60.901730 -5.105462 47.957100 41.594498 1.793188 75.274017 -12.555582 22.990789 6.560129 49.950825 0.973485 -11.320321 -27.022045 -12.625279 15.335467 -2.770139 -11.621926 5.420866 43.390041 -2.975158 -0.660860 -9.651958 -19.068430 -8.147174 
-0.183486 43.913071 -33.778229 -2.928170 10.309077 102.299278 43.315376 3.602289 -5.419999 -20.839844 0.000000 0.000000 -32.094872 14.159064 -22.255014 8.584577 -3.811294 0.287245 -4.754609 -0.109183 -0.002653 -82.166367 -30.036139 33.843300 -11.692412 -18.854359 51.513519 -1.706959 -4.718864 12.023148 4.754609 0.109183 -0.002672 89.224014 -37.400372 -30.694832 77.492851 -2.208196 48.746849 47.097446 12.517470 78.152618 -11.366478 26.636959 10.115908 46.614967 -0.967920 -9.958241 -25.341988 -12.227098 15.268459 -13.278442 -14.206241 0.803866 49.959301 -0.027052 4.957893 -1.768564 -4.824646 -11.814539 
-0.181403 44.648869 -33.653244 -6.465313 7.734305 94.634132 41.866417 5.915710 -7.253519 -20.839844 0.000000 0.000000 -31.845200 17.734982 -13.400375 8.584577 -3.811294 0.287245 -4.754609 -0.109183 -0.002653 -87.036613 -27.062813 30.295221 -3.939641 -17.044046 49.896088 0.324168 -3.945258 17.699036 4.754609 0.109183 -0.002672 89.360107 -39.807236 -27.687855 97.179520 2.183084 43.553249 46.856255 22.739441 75.292213 -9.052531 29.808916 13.818937 43.101353 -2.600403 -7.593274 -23.701323 -10.541848 15.073145 -26.365053 -13.094904 -1.182196 61.216000 -1.532501 8.880908 3.827188 6.010432 -16.814915 
-0.091841 45.196156 -33.389233 -8.517647 4.896829 88.193504 40.865677 7.398242 -9.148351 -20.839844 0.000000 0.000000 -31.252644 21.185635 -5.260647 8.584577 -3.811294 0.287245 -4.754609 -0.109183 -0.002653 -87.185066 -24.220345 28.742767 -2.536366 -16.976086 50.041000 2.144839 -3.999562 18.180334 4.754609 0.109183 -0.002672 86.607994 -45.816887 -26.244507 115.045578 12.270875 27.533281 43.951134 28.337660 61.502323 -7.198016 32.071495 16.831537 40.371204 -3.851170 -5.050292 -22.056746 -8.746213 16.034273 -39.939636 -8.436818 1.777998 75.697662 -3.572908 9.275514 4.577036 6.553630 -19.435036 
0.095628 45.323734 -32.963779 -9.365573 2.649800 84.533852 40.577843 8.262256 -11.707917 -20.839844 0.000000 0.000000 -31.025837 23.962524 0.819931 8.584577 -3.811294 0.287245 -4.754609 -0.109183 -0.002653 -85.573479 -21.659208 27.629038 -2.843536 -17.978222 50.493320 1.950425 -3.978107 16.593679 4.754609 0.109183 -0.002672 88.759087 -54.171673 -32.587173 133.238403 12.176204 5.916693 50.548607 30.679485 39.775055 -7.081196 33.674446 18.500704 39.903721 -4.515011 -3.524161 -20.857742 -7.735903 17.695486 -51.964890 -6.757271 2.527432 91.459167 -5.018637 7.219744 2.845294 5.464630 -22.990255 
0.436714 44.924854 -32.416996 -9.768798 1.453237 83.109283 41.158257 9.235463 -14.046446 -20.839844 0.000000 0.000000 -31.429340 25.520323 4.709517 8.584577 -3.811294 0.287245 -4.754609 -0.109183 -0.002653 -84.383507 -19.913166 26.577063 -2.647163 -18.332069 48.793522 -0.026018 -3.792420 13.290928 4.754609 0.109183 -0.002672 102.501350 -56.630348 -48.901180 141.972992 3.950023 -8.604213 67.683540 32.217403 16.367172 -8.438143 35.423103 18.964296 42.283855 -4.388156 -3.383980 -20.731102 -7.323559 18.605024 -61.223412 -7.606884 2.974373 105.846489 -6.122332 5.551830 1.054414 5.585607 -25.599791 
0.975669 44.252583 -31.824383 -10.500567 1.248277 81.975739 42.350636 10.579071 -15.027558 -20.839844 0.000000 0.000000 -31.854452 25.809288 7.361524 8.584577 -3.811294 0.287245 -4.754609 -0.109183 -0.002653 -83.754364 -18.853462 24.908566 -1.861405 -17.891743 45.128902 -2.166619 -3.925623 9.866556 4.754609 0.109183 -0.002672 109.079712 -53.278362 -55.221050 141.090225 -2.502426 -15.285610 74.946404 30.403896 -2.102267 -8.750989 37.728554 19.693096 45.442032 -3.793098 -3.840772 -21.756954 -7.056697 18.289753 -66.575050 -9.052604 3.753328 115.303741 -7.127641 4.609462 0.198789 6.445415 -26.522312 
1.690649 43.634476 -31.236477 -11.400928 1.589123 79.845734 43.449253 11.493737 -14.799328 -20.839844 0.000000 0.000000 -31.451065 25.487215 9.488718 8.584577 -3.811294 0.287245 -4.754609 -0.109183 -0.002653 -83.141731 -17.814903 22.872868 -1.192248 -17.048203 41.263309 -4.168775 -4.331053 7.187953 4.754609 0.109183 -0.002672 105.810234 -54.544605 -52.129562 135.073685 0.565495 -18.792242 64.243561 27.228712 -9.107430 -6.270722 39.802670 21.524202 47.138794 -3.285500 -3.974676 -23.485209 -6.352891 16.564310 -68.065735 -10.009567 4.555865 117.145012 -8.094067 3.717851 -0.135621 6.366272 -26.120968 
2.520179 43.299110 -30.688663 -11.649947 2.276390 77.333893 43.752026 11.656365 -14.514518 -20.839844 0.000000 0.000000 -29.732906 24.949247 11.415814 8.584577 -3.811294 0.287245 -4.754609 -0.109183 -0.002653 -82.837555 -16.750069 21.169489 -0.444009 -16.091875 38.478157 -5.732039 -4.848619 5.752286 4.754609 0.109183 -0.002672 98.146980 -54.235073 -42.372723 124.416977 7.665401 -18.990883 47.795815 20.087212 -11.271312 -1.817190 39.890972 23.201878 46.662888 -2.992043 -3.314096 -24.746832 -4.716520 14.454888 -65.648872 -10.858834 5.131128 110.563980 -8.954043 4.028345 -0.068112 6.071269 -24.624559 
3.455420 43.217873 -30.104923 -11.183432 3.516101 75.545662 43.103611 11.678336 -14.924969 -20.839844 0.000000 0.000000 -26.622736 23.895395 13.360320 8.584577 -3.811294 0.287245 -4.754609 -0.109183 -0.002653 -82.869049 -15.618377 20.243204 0.221724 -15.902975 37.327492 -6.173065 -4.912828 5.018383 4.754609 0.109183 -0.002672 94.700943 -47.568195 -33.549000 107.349098 9.747918 -17.277617 36.300453 9.900517 -16.950632 2.919251 38.213200 23.712244 44.889740 -2.656611 -2.489039 -24.655186 -2.630574 12.948581 -59.023415 -12.040052 5.250616 96.858391 -9.361434 6.491276 0.356229 6.693131 -21.490877 
4.549499 42.896057 -29.220188 -10.639063 5.144881 74.435692 41.469151 11.834862 -16.124899 -20.839844 0.000000 0.000000 -22.212831 22.117985 15.291268 8.584577 -3.811294 0.287245 -4.754609 -0.109183 -0.002653 -82.875015 -13.815146 19.743862 0.112042 -16.389921 37.410568 -6.193560 -4.051062 4.307506 4.754609 0.109183 -0.002672 95.788353 -37.991676 -28.811537 86.502419 -1.455756 -16.676758 29.903585 -1.796724 -23.441936 7.222257 37.143215 24.243658 44.216309 -2.103320 -2.558520 -24.389971 -1.403142 10.712749 -49.660240 -13.172707 4.904188 79.781731 -8.827168 9.507649 0.861832 7.064096 -18.268391 
